<svg xmlns="http://www.w3.org/2000/svg" width="131" height="39" viewBox="0 0 131 39">
    <g fill="none" fill-rule="evenodd">
        <path fill="#000" fill-rule="nonzero" d="M12.923 16.59l4.542-7.868L12.922 0h-6.26l4.542 7.868L6.662 16.59h6.26zM6.662 21.68L2.12 29.549 6.662 38.27H12.92l-4.54-8.72 4.542-7.869h-6.26zM17.464 29.55l-4.541-8.722 4.54-7.868h6.26l-4.54 7.868 4.54 8.721h-6.26z"/>
        <path fill="#0800F5" fill-rule="nonzero" d="M37.747 10.99v14.12c0 3.733 2.507 5.76 6.16 5.76 3.627 0 6.134-2.027 6.134-5.76V10.99h-4.347v13.613c0 1.947-1.013 2.747-2.266 2.747-1.307 0-2.32-.8-2.32-2.747V10.99h-3.36zm28.32 0v17.28h-3.413l-6.853-10.4v10.4h-3.36V10.99h3.6l6.667 10.026V10.989h3.36zm5.84 0h3.36v17.28h-3.36V10.99zm16.987 0h-9.28v17.28h9.28v-2.987h-5.92v-4.106h5.307v-2.934h-5.307V13.976h5.92V10.99z"/>
    </g>
</svg>
